# xmcd
# 
# Track frame offsets:
#	150
#	12217
#	23990
#	35697
#	54262
#	66462
#	79822
#	95022
#	106680
#	119592
#	130020
#	142960
#
# Disc length: 2130 seconds
#
# Revision: 1
# Processed by: cddbd v1.4PL0 Copyright (c) Steve Scherf et al.
# Submitted via: Audio-CD-Archiv 2.10.441
#
DISCID=9e08500c
DTITLE=Tom Astor - Auf Achse
DYEAR=1900
DGENRE=country
TTITLE0=Gute fahrt auf allen Straßen
TTITLE1=Freie Fahrt in ganz Europa
TTITLE2=Und dann kam er vor Gericht
TTITLE3=Du mußt wieder hinaus ( mit Tina Rossmann )
TTITLE4=Trucker hör´n den Country Club
TTITLE5=Hey, lieber Schutzengel ( mit Leif )
TTITLE6=Immer auf Achse
TTITLE7=Einmal über´n Highway donnern
TTITLE8=Jeden Sonntag nimmt er Abschied für´ne Woche
TTITLE9=Ich fahr Flüstertruck
TTITLE10=Gut´ Nacht, mein Sohn
TTITLE11=Sie ist gerne seine Frau
EXTD=
EXTT0=
EXTT1=
EXTT2=
EXTT3=
EXTT4=
EXTT5=
EXTT6=
EXTT7=
EXTT8=
EXTT9=
EXTT10=
EXTT11=
PLAYORDER=
